<svg aria-roledescription="er" viewBox="0 0 478.6615905761719 532" style="max-width: 478.662px; left: -33px; top: 52px;" xmlns="http://www.w3.org/2000/svg" width="undefined" id="mermaid-svg" height="undefined"><style>#mermaid-svg{font-family:"trebuchet ms",verdana,arial,sans-serif;font-size:16px;fill:#333;}#mermaid-svg .error-icon{fill:#552222;}#mermaid-svg .error-text{fill:#552222;stroke:#552222;}#mermaid-svg .edge-thickness-normal{stroke-width:2px;}#mermaid-svg .edge-thickness-thick{stroke-width:3.5px;}#mermaid-svg .edge-pattern-solid{stroke-dasharray:0;}#mermaid-svg .edge-pattern-dashed{stroke-dasharray:3;}#mermaid-svg .edge-pattern-dotted{stroke-dasharray:2;}#mermaid-svg .marker{fill:#333333;stroke:#333333;}#mermaid-svg .marker.cross{stroke:#333333;}#mermaid-svg svg{font-family:"trebuchet ms",verdana,arial,sans-serif;font-size:16px;}#mermaid-svg .entityBox{fill:#ECECFF;stroke:#9370DB;}#mermaid-svg .attributeBoxOdd{fill:#ffffff;stroke:#9370DB;}#mermaid-svg .attributeBoxEven{fill:#f2f2f2;stroke:#9370DB;}#mermaid-svg .relationshipLabelBox{fill:hsl(80, 100%, 96.2745098039%);opacity:0.7;background-color:hsl(80, 100%, 96.2745098039%);}#mermaid-svg .relationshipLabelBox rect{opacity:0.5;}#mermaid-svg .relationshipLine{stroke:#333333;}#mermaid-svg .entityTitleText{text-anchor:middle;font-size:18px;fill:#333;}#mermaid-svg :root{--mermaid-font-family:"trebuchet ms",verdana,arial,sans-serif;}</style><g></g><defs><marker orient="auto" markerHeight="18" markerWidth="18" refY="9" refX="0" id="ONLY_ONE_START"><path d="M9,0 L9,18 M15,0 L15,18" fill="none" stroke="gray"></path></marker></defs><defs><marker orient="auto" markerHeight="18" markerWidth="18" refY="9" refX="18" id="ONLY_ONE_END"><path d="M3,0 L3,18 M9,0 L9,18" fill="none" stroke="gray"></path></marker></defs><defs><marker orient="auto" markerHeight="18" markerWidth="30" refY="9" refX="0" id="ZERO_OR_ONE_START"><circle r="6" cy="9" cx="21" fill="white" stroke="gray"></circle><path d="M9,0 L9,18" fill="none" stroke="gray"></path></marker></defs><defs><marker orient="auto" markerHeight="18" markerWidth="30" refY="9" refX="30" id="ZERO_OR_ONE_END"><circle r="6" cy="9" cx="9" fill="white" stroke="gray"></circle><path d="M21,0 L21,18" fill="none" stroke="gray"></path></marker></defs><defs><marker orient="auto" markerHeight="36" markerWidth="45" refY="18" refX="18" id="ONE_OR_MORE_START"><path d="M0,18 Q 18,0 36,18 Q 18,36 0,18 M42,9 L42,27" fill="none" stroke="gray"></path></marker></defs><defs><marker orient="auto" markerHeight="36" markerWidth="45" refY="18" refX="27" id="ONE_OR_MORE_END"><path d="M3,9 L3,27 M9,18 Q27,0 45,18 Q27,36 9,18" fill="none" stroke="gray"></path></marker></defs><defs><marker orient="auto" markerHeight="36" markerWidth="57" refY="18" refX="18" id="ZERO_OR_MORE_START"><circle r="6" cy="18" cx="48" fill="white" stroke="gray"></circle><path d="M0,18 Q18,0 36,18 Q18,36 0,18" fill="none" stroke="gray"></path></marker></defs><defs><marker orient="auto" markerHeight="36" markerWidth="57" refY="18" refX="39" id="ZERO_OR_MORE_END"><circle r="6" cy="18" cx="9" fill="white" stroke="gray"></circle><path d="M21,18 Q39,0 57,18 Q39,36 21,18" fill="none" stroke="gray"></path></marker></defs><path style="stroke: gray; fill: none;" marker-start="url(#ZERO_OR_MORE_START)" marker-end="url(#ONLY_ONE_END)" d="M274.0159225463867,300L274.0159225463867,308.3333333333333C274.0159225463867,316.6666666666667,274.0159225463867,333.3333333333333,280.0700075521409,350C286.12409255789515,366.6666666666667,298.23226256940353,383.3333333333333,304.2863475751577,391.6666666666667L310.3404325809119,400" class="er relationshipLine"></path><path style="stroke: gray; fill: none;" marker-start="url(#ZERO_OR_MORE_START)" marker-end="url(#ONLY_ONE_END)" d="M224.01592254638672,74.58662847280978L198.34660212198892,85.15552372734147C172.67728169759116,95.72441898187317,121.33864084879558,116.86220949093659,95.66932042439778,139.4311047454683C70,162,70,186,70,198L70,210" class="er relationshipLine"></path><path style="stroke: gray; fill: none;" marker-start="url(#ZERO_OR_MORE_START)" marker-end="url(#ONLY_ONE_END)" d="M274.0159225463867,88L274.0159225463867,96.33333333333333C274.0159225463867,104.66666666666667,274.0159225463867,121.33333333333333,274.0159225463867,138C274.0159225463867,154.66666666666666,274.0159225463867,171.33333333333334,274.0159225463867,179.66666666666666L274.0159225463867,188" class="er relationshipLine"></path><path style="stroke: gray; fill: none;" marker-start="url(#ZERO_OR_MORE_START)" marker-end="url(#ONLY_ONE_END)" d="M324.0159225463867,81.26990775083685L341.3519096374512,90.72492312569739C358.6878967285156,100.17993850055791,393.35987091064453,119.08996925027895,410.695858001709,146.21165129180613C428.03184509277344,173.33333333333334,428.03184509277344,208.66666666666666,428.03184509277344,244C428.03184509277344,279.3333333333333,428.03184509277344,314.6666666666667,421.97776008701925,340.6666666666667C415.923675081265,366.6666666666667,403.8155050697566,383.3333333333333,397.7614200640025,391.6666666666667L391.70733505824825,400" class="er relationshipLine"></path><g transform="translate(20,210 )" id="entity-User-8992119c-2a57-478c-8900-03027b49ea4e"><rect height="68" width="100" y="0" x="0" class="er entityBox"></rect><text style="dominant-baseline: middle; text-anchor: middle; font-size: 12px;" transform="translate(50,12)" y="0" x="0" id="text-entity-User-8992119c-2a57-478c-8900-03027b49ea4e" class="er entityLabel">User</text><rect height="22" width="50.998573303222656" y="24" x="0" class="er attributeBoxOdd"></rect><text style="dominant-baseline: middle; font-size: 10.2px;" transform="translate(5,35)" y="0" x="0" id="text-entity-User-8992119c-2a57-478c-8900-03027b49ea4e-attr-1-type" class="er entityLabel">String</text><rect height="22" width="49.001426696777344" y="24" x="50.998573303222656" class="er attributeBoxOdd"></rect><text style="dominant-baseline: middle; font-size: 10.2px;" transform="translate(55.998573303222656,35)" y="0" x="0" id="text-entity-User-8992119c-2a57-478c-8900-03027b49ea4e-attr-1-name" class="er entityLabel">id</text><rect height="22" width="50.998573303222656" y="46" x="0" class="er attributeBoxEven"></rect><text style="dominant-baseline: middle; font-size: 10.2px;" transform="translate(5,57)" y="0" x="0" id="text-entity-User-8992119c-2a57-478c-8900-03027b49ea4e-attr-2-type" class="er entityLabel">String</text><rect height="22" width="49.001426696777344" y="46" x="50.998573303222656" class="er attributeBoxEven"></rect><text style="dominant-baseline: middle; font-size: 10.2px;" transform="translate(55.998573303222656,57)" y="0" x="0" id="text-entity-User-8992119c-2a57-478c-8900-03027b49ea4e-attr-2-name" class="er entityLabel">name</text></g><g transform="translate(301.0238838195801,400 )" id="entity-Barbershop-4975c8c2-618d-4b98-845f-5862d26c392d"><rect height="112" width="100" y="0" x="0" class="er entityBox"></rect><text style="dominant-baseline: middle; text-anchor: middle; font-size: 12px;" transform="translate(50,12)" y="0" x="0" id="text-entity-Barbershop-4975c8c2-618d-4b98-845f-5862d26c392d" class="er entityLabel">Barbershop</text><rect height="22" width="43.190216064453125" y="24" x="0" class="er attributeBoxOdd"></rect><text style="dominant-baseline: middle; font-size: 10.2px;" transform="translate(5,35)" y="0" x="0" id="text-entity-Barbershop-4975c8c2-618d-4b98-845f-5862d26c392d-attr-1-type" class="er entityLabel">String</text><rect height="22" width="56.809783935546875" y="24" x="43.190216064453125" class="er attributeBoxOdd"></rect><text style="dominant-baseline: middle; font-size: 10.2px;" transform="translate(48.190216064453125,35)" y="0" x="0" id="text-entity-Barbershop-4975c8c2-618d-4b98-845f-5862d26c392d-attr-1-name" class="er entityLabel">id</text><rect height="22" width="43.190216064453125" y="46" x="0" class="er attributeBoxEven"></rect><text style="dominant-baseline: middle; font-size: 10.2px;" transform="translate(5,57)" y="0" x="0" id="text-entity-Barbershop-4975c8c2-618d-4b98-845f-5862d26c392d-attr-2-type" class="er entityLabel">String</text><rect height="22" width="56.809783935546875" y="46" x="43.190216064453125" class="er attributeBoxEven"></rect><text style="dominant-baseline: middle; font-size: 10.2px;" transform="translate(48.190216064453125,57)" y="0" x="0" id="text-entity-Barbershop-4975c8c2-618d-4b98-845f-5862d26c392d-attr-2-name" class="er entityLabel">name</text><rect height="22" width="43.190216064453125" y="68" x="0" class="er attributeBoxOdd"></rect><text style="dominant-baseline: middle; font-size: 10.2px;" transform="translate(5,79)" y="0" x="0" id="text-entity-Barbershop-4975c8c2-618d-4b98-845f-5862d26c392d-attr-3-type" class="er entityLabel">String</text><rect height="22" width="56.809783935546875" y="68" x="43.190216064453125" class="er attributeBoxOdd"></rect><text style="dominant-baseline: middle; font-size: 10.2px;" transform="translate(48.190216064453125,79)" y="0" x="0" id="text-entity-Barbershop-4975c8c2-618d-4b98-845f-5862d26c392d-attr-3-name" class="er entityLabel">address</text><rect height="22" width="43.190216064453125" y="90" x="0" class="er attributeBoxEven"></rect><text style="dominant-baseline: middle; font-size: 10.2px;" transform="translate(5,101)" y="0" x="0" id="text-entity-Barbershop-4975c8c2-618d-4b98-845f-5862d26c392d-attr-4-type" class="er entityLabel">String</text><rect height="22" width="56.809783935546875" y="90" x="43.190216064453125" class="er attributeBoxEven"></rect><text style="dominant-baseline: middle; font-size: 10.2px;" transform="translate(48.190216064453125,101)" y="0" x="0" id="text-entity-Barbershop-4975c8c2-618d-4b98-845f-5862d26c392d-attr-4-name" class="er entityLabel">imageUrl</text></g><g transform="translate(220,188 )" id="entity-Service-7d1e67ae-a4c6-4f8c-85b3-c34b9fff23df"><rect height="112" width="108.03184509277344" y="0" x="0" class="er entityBox"></rect><text style="dominant-baseline: middle; text-anchor: middle; font-size: 12px;" transform="translate(54.01592254638672,12)" y="0" x="0" id="text-entity-Service-7d1e67ae-a4c6-4f8c-85b3-c34b9fff23df" class="er entityLabel">Service</text><rect height="22" width="46.625" y="24" x="0" class="er attributeBoxOdd"></rect><text style="dominant-baseline: middle; font-size: 10.2px;" transform="translate(5,35)" y="0" x="0" id="text-entity-Service-7d1e67ae-a4c6-4f8c-85b3-c34b9fff23df-attr-1-type" class="er entityLabel">String</text><rect height="22" width="61.40684509277344" y="24" x="46.625" class="er attributeBoxOdd"></rect><text style="dominant-baseline: middle; font-size: 10.2px;" transform="translate(51.625,35)" y="0" x="0" id="text-entity-Service-7d1e67ae-a4c6-4f8c-85b3-c34b9fff23df-attr-1-name" class="er entityLabel">id</text><rect height="22" width="46.625" y="46" x="0" class="er attributeBoxEven"></rect><text style="dominant-baseline: middle; font-size: 10.2px;" transform="translate(5,57)" y="0" x="0" id="text-entity-Service-7d1e67ae-a4c6-4f8c-85b3-c34b9fff23df-attr-2-type" class="er entityLabel">String</text><rect height="22" width="61.40684509277344" y="46" x="46.625" class="er attributeBoxEven"></rect><text style="dominant-baseline: middle; font-size: 10.2px;" transform="translate(51.625,57)" y="0" x="0" id="text-entity-Service-7d1e67ae-a4c6-4f8c-85b3-c34b9fff23df-attr-2-name" class="er entityLabel">name</text><rect height="22" width="46.625" y="68" x="0" class="er attributeBoxOdd"></rect><text style="dominant-baseline: middle; font-size: 10.2px;" transform="translate(5,79)" y="0" x="0" id="text-entity-Service-7d1e67ae-a4c6-4f8c-85b3-c34b9fff23df-attr-3-type" class="er entityLabel">Decimal</text><rect height="22" width="61.40684509277344" y="68" x="46.625" class="er attributeBoxOdd"></rect><text style="dominant-baseline: middle; font-size: 10.2px;" transform="translate(51.625,79)" y="0" x="0" id="text-entity-Service-7d1e67ae-a4c6-4f8c-85b3-c34b9fff23df-attr-3-name" class="er entityLabel">price</text><rect height="22" width="46.625" y="90" x="0" class="er attributeBoxEven"></rect><text style="dominant-baseline: middle; font-size: 10.2px;" transform="translate(5,101)" y="0" x="0" id="text-entity-Service-7d1e67ae-a4c6-4f8c-85b3-c34b9fff23df-attr-4-type" class="er entityLabel">String</text><rect height="22" width="61.40684509277344" y="90" x="46.625" class="er attributeBoxEven"></rect><text style="dominant-baseline: middle; font-size: 10.2px;" transform="translate(51.625,101)" y="0" x="0" id="text-entity-Service-7d1e67ae-a4c6-4f8c-85b3-c34b9fff23df-attr-4-name" class="er entityLabel">description</text></g><g transform="translate(224.01592254638672,20 )" id="entity-Booking-18a83504-7cc9-4566-9186-78e6df211767"><rect height="68" width="100" y="0" x="0" class="er entityBox"></rect><text style="dominant-baseline: middle; text-anchor: middle; font-size: 12px;" transform="translate(50,12)" y="0" x="0" id="text-entity-Booking-18a83504-7cc9-4566-9186-78e6df211767" class="er entityLabel">Booking</text><rect height="22" width="61.50486755371094" y="24" x="0" class="er attributeBoxOdd"></rect><text style="dominant-baseline: middle; font-size: 10.2px;" transform="translate(5,35)" y="0" x="0" id="text-entity-Booking-18a83504-7cc9-4566-9186-78e6df211767-attr-1-type" class="er entityLabel">String</text><rect height="22" width="38.49513244628906" y="24" x="61.50486755371094" class="er attributeBoxOdd"></rect><text style="dominant-baseline: middle; font-size: 10.2px;" transform="translate(66.50486755371094,35)" y="0" x="0" id="text-entity-Booking-18a83504-7cc9-4566-9186-78e6df211767-attr-1-name" class="er entityLabel">id</text><rect height="22" width="61.50486755371094" y="46" x="0" class="er attributeBoxEven"></rect><text style="dominant-baseline: middle; font-size: 10.2px;" transform="translate(5,57)" y="0" x="0" id="text-entity-Booking-18a83504-7cc9-4566-9186-78e6df211767-attr-2-type" class="er entityLabel">DateTime</text><rect height="22" width="38.49513244628906" y="46" x="61.50486755371094" class="er attributeBoxEven"></rect><text style="dominant-baseline: middle; font-size: 10.2px;" transform="translate(66.50486755371094,57)" y="0" x="0" id="text-entity-Booking-18a83504-7cc9-4566-9186-78e6df211767-attr-2-name" class="er entityLabel">date</text></g><rect height="14" width="61.31640625" y="346.7196350097656" x="250.86013793945312" class="er relationshipLabelBox"></rect><text style="text-anchor: middle; dominant-baseline: middle; font-size: 12px;" y="353.7196350097656" x="281.5183410644531" id="rel1" class="er relationshipLabel">barberShop</text><rect height="14" width="23.958984375" y="113.64014434814453" x="110.79804992675781" class="er relationshipLabelBox"></rect><text style="text-anchor: middle; dominant-baseline: middle; font-size: 12px;" y="120.64014434814453" x="122.77754211425781" id="rel2" class="er relationshipLabel">user</text><rect height="14" width="38.306640625" y="131" x="254.86260986328125" class="er relationshipLabelBox"></rect><text style="text-anchor: middle; dominant-baseline: middle; font-size: 12px;" y="138" x="274.01593017578125" id="rel3" class="er relationshipLabel">service</text><rect height="14" width="61.31640625" y="214.0161590576172" x="397.1947937011719" class="er relationshipLabelBox"></rect><text style="text-anchor: middle; dominant-baseline: middle; font-size: 12px;" y="221.0161590576172" x="427.8529968261719" id="rel4" class="er relationshipLabel">barberShop</text></svg>